HIERARCHY
ROOT Pelvis
{
	OFFSET -0.217368 -24.078917 2.858379
	CHANNELS 6 Xposition Yposition Zposition Zrotation Yrotation Xrotation 
	JOINT Left_hip
	{
		OFFSET 5.858135 -8.228005 -1.766408
		CHANNELS 3 Zrotation Yrotation Xrotation
		JOINT Left_knee
		{
			OFFSET 4.345143 -38.646942 0.803700
			CHANNELS 3 Zrotation Yrotation Xrotation
			JOINT Left_ankle
			{
				OFFSET -1.479033 -42.687447 -3.742800
				CHANNELS 3 Zrotation Yrotation Xrotation
				JOINT Left_foot
				{
					OFFSET 4.105436 -6.028605 12.204244
					CHANNELS 3 Zrotation Yrotation Xrotation
					End Site
					{
						OFFSET 0.000000 0.000000 0.000000
					}
				}
			}
		}
	}
	JOINT Right_hip
	{
		OFFSET -6.030973 -9.051328 -1.354253
		CHANNELS 3 Zrotation Yrotation Xrotation
		JOINT Right_knee
		{
			OFFSET -4.325663 -38.368790 -0.484304
			CHANNELS 3 Zrotation Yrotation Xrotation
			JOINT Right_ankle
			{
				OFFSET 1.905555 -42.004566 -3.456167
				CHANNELS 3 Zrotation Yrotation Xrotation
				JOINT Right_foot
				{
					OFFSET -3.483987 -6.210554 13.032330
					CHANNELS 3 Zrotation Yrotation Xrotation
					End Site
					{
						OFFSET 0.000000 0.000000 0.000000
					}
				}
			}
		}
	}
	JOINT Spine1
	{
		OFFSET 0.443945 12.440353 -3.838522
		CHANNELS 3 Zrotation Yrotation Xrotation
		JOINT Spine2
		{
			OFFSET 0.448844 13.795640 2.682033
			CHANNELS 3 Zrotation Yrotation Xrotation
			JOINT Spine3
			{
				OFFSET -0.226460 5.603239 0.285504
				CHANNELS 3 Zrotation Yrotation Xrotation
				JOINT Neck
				{
					OFFSET -1.339018 21.163553 -3.346758
					CHANNELS 3 Zrotation Yrotation Xrotation
					JOINT Head
					{
						OFFSET 1.011321 8.893734 5.040987
						CHANNELS 3 Zrotation Yrotation Xrotation
						End Site
						{
							OFFSET 0.000000 0.000000 0.000000
						}
					}
				}
				JOINT Left_collar
				{
					OFFSET 7.170247 11.399971 -1.889817
					CHANNELS 3 Zrotation Yrotation Xrotation
					JOINT Left_shoulder
					{
						OFFSET 12.292140 4.520507 -1.904600
						CHANNELS 3 Zrotation Yrotation Xrotation
						JOINT Left_elbow
						{
							OFFSET 25.533188 -1.564902 -2.294648
							CHANNELS 3 Zrotation Yrotation Xrotation
							JOINT Left_wrist
							{
								OFFSET 26.570929 1.269810 -0.737473
								CHANNELS 3 Zrotation Yrotation Xrotation
								JOINT Left_palm
								{
									OFFSET 8.669054 -1.063602 -1.559429
									CHANNELS 3 Zrotation Yrotation Xrotation
									End Site
									{
										OFFSET 0.000000 0.000000 0.000000
									}
								}
							}
						}
					}
				}
				JOINT Right_collar
				{
					OFFSET -8.295364 11.247234 -2.370738
					CHANNELS 3 Zrotation Yrotation Xrotation
					JOINT Right_shoulder
					{
						OFFSET -11.322830 4.685326 -0.847207
						CHANNELS 3 Zrotation Yrotation Xrotation
						JOINT Right_elbow
						{
							OFFSET -26.012751 -1.436928 -3.126872
							CHANNELS 3 Zrotation Yrotation Xrotation
							JOINT Right_wrist
							{
								OFFSET -26.910841 0.679372 -0.602677
								CHANNELS 3 Zrotation Yrotation Xrotation
								JOINT Right_palm
								{
									OFFSET -8.875370 -0.865157 -1.010708
									CHANNELS 3 Zrotation Yrotation Xrotation
									End Site
									{
										OFFSET 0.000000 0.000000 0.000000
									}
								}
							}
						}
					}
				}
			}
		}
	}
}
MOTION
Frames: 9
Frame Time: 0.016667
1.072357 71.717018 -0.134408 -2.113724 3.681540 -4.662054 8.328885 -0.092968 0.348606 -6.325656 0.869965 8.032524 1.530495 6.490855 9.626363 0.000000 0.000000 0.000000 -3.071783 0.066296 0.068217 3.827933 -0.353973 8.799828 -1.121320 -7.238619 12.338392 0.000000 0.000000 0.000000 -1.407626 -0.414963 14.923624 4.927385 -0.579891 -23.874562 -1.791359 -2.810701 23.448825 -2.377450 2.601054 -17.504710 0.000000 0.000000 0.000000 -28.991786 0.290525 -3.359432 -39.627577 -3.695782 -3.177432 -13.627897 -23.873093 3.722086 0.000000 0.000000 0.000000 0.000000 0.000000 0.000000 22.878723 6.241710 1.282665 43.888497 4.151022 -2.395300 1.059741 23.571279 0.932876 0.000000 0.000000 0.000000 0.000000 0.000000 0.000000 
1.200905 71.708931 -3.062570 -1.895813 2.736903 -4.652297 7.724139 -0.166477 -3.126717 -5.946846 0.837256 9.946517 0.804589 5.405951 10.127181 0.000000 0.000000 0.000000 -3.094259 0.292770 -3.032954 3.202650 -0.206731 11.529354 -0.996059 -7.012785 12.373396 0.000000 0.000000 0.000000 -0.956005 -0.566751 17.610666 4.857114 -0.578889 -23.641328 -2.319309 -2.671295 21.853666 -2.307785 2.543451 -17.029590 0.000000 0.000000 0.000000 -28.575306 -0.752575 -2.636548 -37.558716 -5.236361 -2.573068 -14.474013 -24.404238 3.992438 0.000000 0.000000 0.000000 0.000000 0.000000 0.000000 24.153461 5.324807 0.677775 41.420975 6.054103 -1.655569 1.069360 25.248497 1.005386 0.000000 0.000000 0.000000 0.000000 0.000000 0.000000 
1.240263 71.796478 -6.940659 -2.233652 1.599202 -3.699749 7.026425 -0.280232 -6.574891 -4.919108 0.636453 10.293967 0.903716 6.036772 11.683526 0.000000 0.000000 0.000000 -3.013504 0.778473 -9.624149 3.506035 -0.235733 15.340965 -0.038895 -5.472865 13.214135 0.000000 0.000000 0.000000 -1.318009 -0.571408 19.735087 4.407671 -0.489867 -23.305569 -1.762221 -3.858040 20.872158 -1.115375 1.873610 -17.214251 0.000000 0.000000 0.000000 -27.230355 -2.497712 -1.387689 -36.794199 -7.483288 -1.896287 -13.554817 -24.648278 3.832958 0.000000 0.000000 0.000000 0.000000 0.000000 0.000000 24.215272 5.505934 0.783665 40.704928 7.805630 -1.080624 -0.636586 28.332987 0.740963 0.000000 0.000000 0.000000 0.000000 0.000000 0.000000 
1.199533 71.835274 -11.358473 -2.534344 -0.588272 -1.427938 7.087566 -0.407305 -10.986498 -5.258350 0.690624 9.161751 1.743930 7.784821 13.142390 0.000000 0.000000 0.000000 -3.553133 1.239987 -16.748892 3.042727 -0.067282 19.431032 1.442778 -3.512975 15.465138 0.000000 0.000000 0.000000 -1.328360 -0.600921 20.778766 5.457134 -0.741401 -23.451286 -3.240261 -3.594044 21.578085 -0.914320 1.883076 -19.501585 0.000000 0.000000 0.000000 -24.983460 -3.223629 -0.745182 -36.614180 -10.377036 -1.079321 -11.870569 -24.583014 3.455546 0.000000 0.000000 0.000000 0.000000 0.000000 0.000000 23.072625 5.343103 0.744912 42.385442 13.402911 0.758968 -0.120462 26.266746 0.795435 0.000000 0.000000 0.000000 0.000000 0.000000 0.000000 
1.016156 71.822075 -15.713533 -2.689997 -2.385002 -2.187231 7.881045 -0.356399 -11.692988 -7.101814 1.036810 8.925495 4.652647 12.593998 14.848331 0.000000 0.000000 0.000000 -5.157055 1.232840 -20.189784 5.791651 -0.976626 29.991261 0.734333 -4.511512 14.639525 0.000000 0.000000 0.000000 -1.654588 -0.607145 23.299309 4.056686 -0.463746 -22.316616 -2.223383 -4.134590 22.119183 -1.637476 2.243029 -18.800171 0.000000 0.000000 0.000000 -25.076983 -5.411181 0.572112 -32.671395 -11.097028 -0.840536 -10.629367 -26.237719 3.411809 0.000000 0.000000 0.000000 0.000000 0.000000 0.000000 22.990487 8.361932 2.531110 41.354463 14.110984 0.952252 1.854873 27.789728 1.291888 0.000000 0.000000 0.000000 0.000000 0.000000 0.000000 
0.647618 71.286469 -19.723980 -2.595716 -1.348702 -3.272569 8.887005 -0.290394 -13.510492 -9.138043 1.483897 10.204102 5.200567 13.377535 14.617287 0.000000 0.000000 0.000000 -7.075100 0.959959 -20.801531 8.041934 -2.353714 43.632498 -2.274313 -9.696156 13.657623 0.000000 0.000000 0.000000 -0.930691 -0.826947 25.180769 4.211063 -0.409575 -23.796043 -2.674291 -3.966619 23.061827 -3.539766 3.293783 -19.068079 0.000000 0.000000 0.000000 -25.401646 -5.829683 0.809949 -29.925229 -10.816964 -0.876840 -6.751311 -27.256278 2.617721 0.000000 0.000000 0.000000 0.000000 0.000000 0.000000 22.752297 9.852097 3.415877 40.709433 13.859634 0.843141 2.930525 28.169871 1.559268 0.000000 0.000000 0.000000 0.000000 0.000000 0.000000 
0.046064 70.599144 -23.375134 -1.731549 -0.808696 -2.766137 9.521227 -0.254079 -17.318941 -10.449550 1.832661 11.615509 4.183605 11.832566 14.484880 0.000000 0.000000 0.000000 -10.181067 0.437712 -18.508518 7.861863 -2.751222 55.936790 -1.185367 -7.838632 14.120173 0.000000 0.000000 0.000000 -1.713965 -0.595159 23.327868 4.456856 -0.469001 -23.809543 -1.934568 -3.192733 23.809774 -3.320026 3.167419 -18.821993 0.000000 0.000000 0.000000 -26.341337 -5.910723 0.812420 -28.653560 -9.640399 -1.104671 -3.794174 -26.843094 1.879285 0.000000 0.000000 0.000000 0.000000 0.000000 0.000000 24.982308 11.320250 4.330971 37.829742 10.951809 -0.122604 0.988164 30.105522 1.192948 0.000000 0.000000 0.000000 0.000000 0.000000 0.000000 
-0.847438 69.359375 -26.872543 -1.249094 0.092177 -3.103586 8.137480 -0.512593 -20.449007 -10.022259 1.820232 13.020404 3.916985 11.521666 15.009811 0.000000 0.000000 0.000000 -11.228102 0.276983 -10.079064 7.372058 -2.602335 60.762288 2.120110 -3.196754 17.958757 0.000000 0.000000 0.000000 -1.840072 -0.516286 21.309710 4.696686 -0.536802 -23.677653 -0.725593 -1.891609 24.402127 -2.500396 2.559364 -14.487298 0.000000 0.000000 0.000000 -27.433253 -4.478402 -0.153193 -26.710717 -7.834349 -1.399637 -3.762683 -27.733619 1.937123 0.000000 0.000000 0.000000 0.000000 0.000000 0.000000 25.272917 10.789297 4.004784 34.291395 10.825499 -0.199878 -2.300446 29.486564 0.368222 0.000000 0.000000 0.000000 0.000000 0.000000 0.000000 
-2.095496 67.992584 -30.441765 0.165142 -0.999921 -3.916072 6.988280 -0.788279 -23.093022 -9.712418 1.810712 14.152268 4.727488 13.180073 18.153932 0.000000 0.000000 0.000000 -12.129557 0.286753 1.062504 3.849713 -0.033851 57.060925 5.676678 1.644995 20.861090 0.000000 0.000000 0.000000 -2.813512 -0.277687 18.475725 4.512421 -0.538240 -22.971613 0.560160 0.532414 25.570072 -3.295786 2.987665 -12.781225 0.000000 0.000000 0.000000 -27.251800 -2.921261 -1.123117 -23.677759 -5.294048 -1.685956 -5.398711 -27.347367 2.301554 0.000000 0.000000 0.000000 0.000000 0.000000 0.000000 24.872107 8.640795 2.672381 33.219290 9.959659 -0.424816 -3.724685 31.191456 0.019035 0.000000 0.000000 0.000000 0.000000 0.000000 0.000000 
